<svg width="40" height="44" viewBox="0 0 40 44" fill="none" xmlns="http://www.w3.org/2000/svg">
<path d="M13.0638 37.9177C12.7666 37.5405 12.8314 36.9938 13.2087 36.6966L37.322 17.6979C37.6992 17.4007 38.246 17.4656 38.5432 17.8428C38.8404 18.22 38.7755 18.7668 38.3983 19.064L14.285 38.0626C13.9078 38.3598 13.361 38.295 13.0638 37.9177Z" fill="white"/>
<path d="M1.58165 22.3305C1.28444 21.9533 1.3493 21.4065 1.72653 21.1093L26.3203 1.73209C26.6976 1.43488 27.2443 1.49974 27.5415 1.87697C27.8387 2.2542 27.7739 2.80094 27.3966 3.09816L2.80284 22.4754C2.42561 22.7726 1.87887 22.7077 1.58165 22.3305Z" fill="white"/>
<path d="M4.19035 28.8573C3.89313 28.4801 3.958 27.9333 4.33523 27.6361L33.143 4.93877C33.5202 4.64156 34.0669 4.70642 34.3642 5.08365C34.6614 5.46088 34.5965 6.00762 34.2193 6.30484L5.41153 29.0022C5.03431 29.2994 4.48756 29.2345 4.19035 28.8573Z" fill="#3B82F6"/>
<path d="M5.23383 32.1831C4.93661 31.8058 5.00148 31.2591 5.3787 30.9619L35.1133 7.53429C35.4905 7.23708 36.0373 7.30194 36.3345 7.67917C36.6317 8.0564 36.5668 8.60314 36.1896 8.90036L6.45501 32.3279C6.07778 32.6252 5.53104 32.5603 5.23383 32.1831Z" fill="#3B82F6"/>
<path d="M3.84252 37.3383C3.54531 36.961 3.61017 36.4143 3.9874 36.1171L36.5668 10.4481C36.9441 10.1509 37.4908 10.2157 37.788 10.593C38.0853 10.9702 38.0204 11.5169 37.6432 11.8141L5.06371 37.4832C4.68648 37.7804 4.13974 37.7155 3.84252 37.3383Z" fill="#3B82F6"/>
<path d="M1.75557 26.491C1.45835 26.1138 1.52322 25.567 1.90044 25.2698L29.9732 3.15155C30.3504 2.85433 30.8972 2.9192 31.1944 3.29643C31.4916 3.67365 31.4268 4.2204 31.0495 4.51761L2.97675 26.6359C2.59952 26.9331 2.05278 26.8682 1.75557 26.491Z" fill="#9CA3AF"/>
<path d="M1.86582 43.8863C1.21956 43.7008 0.846045 43.0266 1.03154 42.3803L4.22422 31.2571C4.40971 30.6108 5.08397 30.2373 5.73023 30.4228C6.37648 30.6083 6.75 31.2826 6.56451 31.9288L3.37182 43.052C3.18633 43.6983 2.51207 44.0718 1.86582 43.8863Z" fill="#9CA3AF"/>
<path d="M1.4163 43.2117C1.06348 42.6394 1.24143 41.8894 1.81377 41.5366L10.8873 35.9432C11.4596 35.5904 12.2096 35.7683 12.5624 36.3406C12.9153 36.913 12.7373 37.663 12.165 38.0158L3.09144 43.6092C2.5191 43.962 1.76911 43.7841 1.4163 43.2117Z" fill="#9CA3AF"/>
<path d="M1.05991 18.8341C0.7627 18.4569 0.827564 17.9101 1.20479 17.6129L21.6134 1.53319C21.9907 1.23597 22.5374 1.30084 22.8346 1.67807C23.1318 2.05529 23.067 2.60204 22.6897 2.89925L2.2811 18.979C1.90387 19.2762 1.35713 19.2113 1.05991 18.8341Z" fill="#9CA3AF"/>
<path d="M1.92948 14.3608C1.63226 13.9836 1.69713 13.4369 2.07436 13.1396L17.4553 1.02117C17.8325 0.723959 18.3793 0.788823 18.6765 1.16605C18.9737 1.54328 18.9088 2.09002 18.5316 2.38724L3.15067 14.5057C2.77344 14.8029 2.22669 14.7381 1.92948 14.3608Z" fill="#9CA3AF"/>
<path d="M4.36426 41.0917C4.06705 40.7145 4.13191 40.1677 4.50914 39.8705L37.4339 13.9295C37.8111 13.6322 38.3579 13.6971 38.6551 14.0743C38.9523 14.4516 38.8874 14.9983 38.5102 15.2955L5.58545 41.2366C5.20822 41.5338 4.66147 41.4689 4.36426 41.0917Z" fill="#9CA3AF"/>
<path d="M16.3643 39.0048C16.067 38.6275 16.1319 38.0808 16.5091 37.7836L37.6814 21.1022C38.0586 20.8049 38.6054 20.8698 38.9026 21.247C39.1998 21.6243 39.135 22.171 38.7577 22.4682L17.5854 39.1496C17.2082 39.4469 16.6615 39.382 16.3643 39.0048Z" fill="#9CA3AF"/>
<path d="M21.0599 38.9625C20.7627 38.5853 20.8276 38.0385 21.2048 37.7413L36.7662 25.4807C37.1434 25.1835 37.6901 25.2483 37.9873 25.6255C38.2846 26.0028 38.2197 26.5495 37.8425 26.8467L22.2811 39.1074C21.9039 39.4046 21.3571 39.3397 21.0599 38.9625Z" fill="#9CA3AF"/>
<path d="M6.12967 32.5752C5.60687 33.0492 4.79524 33.012 4.3556 32.46C1.94876 29.4382 0.462642 25.7755 0.0916087 21.9118C-0.32024 17.6231 0.663835 13.3161 2.89735 9.63184C5.13087 5.94756 8.49442 3.08304 12.4873 1.46465C16.0845 0.00664536 20.0192 -0.369748 23.8116 0.366566C24.5044 0.501065 24.9127 1.20347 24.7343 1.88621C24.5558 2.56896 23.8582 2.97285 23.1642 2.84484C19.906 2.24384 16.5341 2.58183 13.4472 3.83299C9.96454 5.24459 7.03077 7.7431 5.08263 10.9566C3.1345 14.1701 2.27617 17.9268 2.63539 21.6675C2.95379 24.9831 4.21361 28.1289 6.25342 30.7398C6.68788 31.2958 6.65247 32.1012 6.12967 32.5752Z" fill="#9CA3AF"/>
<path d="M37.7612 14.0786C38.4306 13.8554 39.1585 14.2164 39.3385 14.8988C40.2777 18.4591 40.2178 22.2187 39.1524 25.7606C37.9641 29.7113 35.5832 33.1979 32.3358 35.7425C29.0885 38.2871 25.1336 39.7653 21.0134 39.9743C17.3195 40.1617 13.6547 39.3209 10.4222 37.5575C9.80273 37.2196 9.62624 36.4265 10.003 35.8298C10.3798 35.2332 11.1671 35.0595 11.7897 35.3916C14.5738 36.8768 17.7166 37.5828 20.8839 37.4221C24.4777 37.2398 27.9272 35.9505 30.7596 33.731C33.592 31.5116 35.6688 28.4705 36.7052 25.0245C37.6187 21.9875 37.6847 18.7671 36.9085 15.7086C36.7348 15.0246 37.0917 14.3018 37.7612 14.0786Z" fill="#9CA3AF"/>
</svg>
